<svg width="291" height="219" viewBox="0 0 291 219" fill="none" xmlns="http://www.w3.org/2000/svg">
<path d="M141.666 212.652L21.0975 141.463C17.2563 139.283 13.968 135.775 17.7073 133.472L138.712 63.8081C140.531 62.6821 143.288 61.9485 145.129 63.0163L271.714 136.385C275.555 138.608 276.239 144.833 272.398 147.056L157.562 212.514C155.154 213.917 152.421 214.668 149.632 214.693C146.844 214.717 144.098 214.013 141.666 212.652V212.652Z" fill="#A6BFDB"/>
<path opacity="0.48" d="M51.3324 130.929L25.6807 143.366C29.4539 145.884 33.4385 148.072 37.5899 149.904L63.7217 132.506" fill="url(#paint0_linear_21_353)"/>
<path opacity="0.48" d="M167.878 129.694C161.141 125.438 154.412 121.137 148.141 116.234L113.017 136.327L149.392 164.657C153.568 162.02 175.408 151.095 188.008 144.405V142.952C181.3 138.557 174.68 133.988 167.878 129.694Z" fill="url(#paint1_linear_21_353)"/>
<path d="M155.394 69.2271C155.336 68.9459 155.217 68.6808 155.045 68.451C154.872 68.2212 154.651 68.0323 154.397 67.8978C154.167 67.7707 153.897 67.7368 153.642 67.803C153.388 67.8693 153.168 68.0306 153.03 68.2537C152.916 68.4779 152.88 68.7334 152.928 68.9802V68.9802C152.846 69.3379 152.855 69.7105 152.956 70.0635C153.056 70.4166 153.244 70.7386 153.503 70.9996C153.597 71.0972 153.71 71.1747 153.835 71.2277C153.96 71.2807 154.094 71.308 154.23 71.308C154.366 71.308 154.5 71.2807 154.625 71.2277C154.75 71.1747 154.863 71.0972 154.958 70.9996C155.163 70.7583 155.309 70.4724 155.385 70.1648C155.461 69.8572 155.464 69.5361 155.394 69.2271V69.2271Z" fill="#5A2500"/>
<path d="M186.604 36.5528L148.519 14.0918C147.961 13.8068 147.351 13.6379 146.726 13.5955C146.1 13.553 145.473 13.6379 144.882 13.8448H144.823C144.544 13.9384 144.274 14.0576 144.016 14.2008L140.407 15.7916L142.335 16.6415L143.521 113.982C143.521 115.696 143.971 117.381 144.826 118.867C145.681 120.353 146.912 121.589 148.395 122.452L183.905 143.112L183.352 146.439L188.168 143.896C188.635 143.641 189.024 143.265 189.294 142.807C189.564 142.349 189.705 141.827 189.703 141.295V41.9791C189.704 40.8836 189.418 39.8069 188.875 38.8552C188.331 37.9036 187.548 37.11 186.604 36.5528Z" fill="#22C55E"/>
<path opacity="0.33" d="M186.604 36.5528L148.519 14.0918C147.961 13.8068 147.351 13.6379 146.726 13.5955C146.1 13.553 145.473 13.6379 144.882 13.8448H144.823C144.544 13.9384 144.274 14.0576 144.016 14.2008L140.407 15.7916L142.335 16.6415L143.521 113.982C143.521 115.696 143.971 117.381 144.826 118.867C145.681 120.353 146.912 121.589 148.395 122.452L183.905 143.112L183.352 146.439L188.168 143.896C188.635 143.641 189.024 143.265 189.294 142.807C189.564 142.349 189.705 141.827 189.703 141.295V41.9791C189.704 40.8836 189.418 39.8069 188.875 38.8552C188.331 37.9036 187.548 37.11 186.604 36.5528Z" fill="#3F3D56"/>
<path d="M180.609 146.279L143.79 124.857C142.307 123.994 141.076 122.757 140.221 121.271C139.366 119.785 138.916 118.101 138.916 116.386V18.1525C138.914 17.6923 139.035 17.2399 139.266 16.8415C139.496 16.4431 139.829 16.113 140.229 15.8847C140.629 15.6565 141.083 15.5384 141.544 15.5425C142.004 15.5465 142.456 15.6726 142.852 15.9078L181.991 38.9935C182.936 39.5507 183.719 40.3443 184.262 41.296C184.806 42.2476 185.091 43.3243 185.091 44.4199V143.707C185.09 144.23 184.951 144.744 184.689 145.197C184.426 145.65 184.048 146.025 183.594 146.286C183.14 146.547 182.625 146.683 182.101 146.682C181.577 146.681 181.062 146.542 180.609 146.279V146.279Z" fill="#F4F4F4"/>
<path d="M182.755 50.4201L140.808 26.3973V112.34L182.755 136.552V50.4201Z" fill="#054F70"/>
<path d="M158.485 130.545C159.524 130.297 160.095 128.961 159.76 127.56C159.425 126.159 158.311 125.224 157.272 125.472C156.232 125.72 155.661 127.056 155.996 128.457C156.331 129.858 157.445 130.793 158.485 130.545Z" fill="#BABABC"/>
<path d="M156.311 30.5307C156.311 30.6959 156.354 30.8581 156.437 31.001C156.521 31.1439 156.64 31.2623 156.784 31.3443L164.888 35.9934C165.031 36.0748 165.192 36.1174 165.357 36.1168C165.521 36.1163 165.682 36.0726 165.825 35.9902C165.967 35.9078 166.085 35.7896 166.167 35.6474C166.249 35.5052 166.292 35.3439 166.292 35.1798V34.9836C166.292 34.8158 166.246 34.651 166.161 34.5066C166.075 34.3622 165.952 34.2435 165.805 34.1628L157.7 29.7098C157.557 29.6316 157.397 29.5919 157.234 29.5946C157.071 29.5973 156.911 29.6422 156.771 29.7251C156.631 29.8079 156.515 29.9257 156.434 30.067C156.353 30.2082 156.311 30.368 156.311 30.5307V30.5307Z" fill="#CCCCCC"/>
<path d="M153.436 28.8413C153.912 28.6644 154.102 27.9952 153.86 27.3465C153.618 26.6979 153.036 26.3155 152.56 26.4924C152.085 26.6693 151.895 27.3386 152.137 27.9872C152.379 28.6359 152.96 29.0183 153.436 28.8413Z" fill="#CCCCCC"/>
<path d="M262.446 162.943L261.718 162.58C261.303 162.369 260.932 163.001 261.354 163.204L262.082 163.568C262.497 163.778 262.868 163.154 262.446 162.943Z" fill="#FA4E76"/>
<path d="M287.363 130.886C286.026 130.909 284.7 131.126 283.427 131.532C283.334 131.559 283.255 131.622 283.208 131.706C283.16 131.79 283.147 131.889 283.172 131.983C283.362 132.638 283.686 133.246 284.125 133.769C284.563 134.292 285.106 134.718 285.718 135.019C286.133 135.223 286.504 134.598 286.082 134.394C285.128 133.93 284.386 133.119 284.009 132.128C285.1 131.813 286.227 131.642 287.363 131.62C287.46 131.62 287.553 131.581 287.622 131.512C287.691 131.443 287.73 131.35 287.73 131.253C287.73 131.155 287.691 131.062 287.622 130.993C287.553 130.925 287.46 130.886 287.363 130.886V130.886Z" fill="#F2F2F2"/>
<path d="M145.5 42.6692V42.4949C145.5 40.5844 147.886 39.3931 149.792 40.352L176.637 55.2799C177.087 55.4969 177.518 55.7521 177.925 56.0427V56.0427C179.816 57.6117 177.801 61.4472 174.2 59.7692L146.955 44.8485C146.53 44.6609 146.168 44.3562 145.91 43.9703C145.652 43.5843 145.51 43.133 145.5 42.6692Z" fill="#031E28"/>
<path d="M173.596 85.608C174.927 96.1993 170.031 105.425 162.684 106.217C155.336 107.008 148.272 99.0686 146.94 88.4847C145.609 77.9007 150.505 68.6679 157.853 67.8761C165.201 67.0843 172.265 75.0241 173.596 85.608Z" fill="#79C83B"/>
<path d="M151.014 88.2231L153.175 84.8234L157.053 90.7292L165.681 77.4285L169.093 80.2179L157.395 97.9426L151.014 88.2231Z" fill="white"/>
<path opacity="0.48" d="M230.443 149.112L204.791 161.548C208.564 164.067 212.549 166.254 216.7 168.086L242.832 150.688" fill="url(#paint2_linear_21_353)"/>
<path d="M227.998 125.438C227.933 125.374 227.881 125.297 227.846 125.213C226.747 124.66 225.663 124.137 224.506 123.651C224.157 123.389 223.779 123.149 223.444 122.924C223.384 122.99 223.309 123.042 223.226 123.076C223.143 123.11 223.054 123.125 222.964 123.12C221.319 123.076 219.681 122.891 218.068 122.568C217.995 122.707 217.939 122.853 217.901 123.004C219.361 124.699 220.347 126.749 220.76 128.946C221.073 129.302 221.407 129.673 221.771 130.065C223.393 130.704 225.598 130.566 227.446 130.791C227.532 130.605 227.601 130.41 227.649 130.21H227.729C228.351 130.437 228.956 130.707 229.541 131.017C230.755 131.188 231.906 131.663 232.887 132.397C233.156 132.294 233.403 132.141 233.615 131.946C231.716 129.84 230.057 127.464 227.998 125.438Z" fill="#1B896C"/>
<path d="M237.391 127.196L241.945 123.614C241.945 123.614 248.092 121.668 248.005 115.079C247.917 108.49 245.946 106.725 245.946 106.725C245.946 106.725 238.285 118.217 237.391 127.196Z" fill="#1B896C"/>
<path d="M227.773 139.705L230.101 150.55C230.178 150.91 230.336 151.248 230.563 151.539C230.79 151.83 231.079 152.065 231.41 152.228C232.764 152.889 235.557 153.579 240.868 152.62C241.345 152.534 241.787 152.309 242.136 151.973C242.486 151.637 242.728 151.205 242.832 150.732L245.218 139.705" fill="#22C55E"/>
<path d="M236.496 143.271C241.313 143.271 245.218 141.675 245.218 139.705C245.218 137.735 241.313 136.138 236.496 136.138C231.678 136.138 227.773 137.735 227.773 139.705C227.773 141.675 231.678 143.271 236.496 143.271Z" fill="#56403D"/>
<path d="M248.492 112.856C248.288 110.234 246.557 107.887 246.819 105.243C246.87 104.749 246.193 104.669 245.96 105.011C241.436 111.651 238.503 119.242 237.391 127.196C237.336 127.293 237.318 127.406 237.34 127.515C236.863 131.064 236.754 134.652 237.012 138.223C237.318 138.195 237.622 138.147 237.922 138.077C237.678 134.574 237.792 131.054 238.264 127.573C239.813 125.736 242.01 124.864 243.88 123.404C245.469 122.17 246.72 120.556 247.517 118.711C248.312 116.867 248.646 114.858 248.492 112.856V112.856ZM246.622 118.341C245.642 120.539 244.003 122.379 241.93 123.607C241.064 124.152 240.206 124.668 239.406 125.256C241.072 122.003 242.511 118.639 243.712 115.188C243.909 114.629 242.985 114.389 242.825 114.941C241.697 118.201 240.353 121.382 238.802 124.464C240.055 118.155 242.481 112.136 245.953 106.718C246.179 108.207 246.884 109.551 247.277 111.076C247.869 113.503 247.639 116.058 246.622 118.341V118.341Z" fill="#37B596"/>
<path d="M236.568 138.244C235.841 136.37 235.113 134.474 234.27 132.666C234.281 132.582 234.269 132.496 234.236 132.418C234.203 132.34 234.149 132.273 234.08 132.222C233.009 129.989 231.557 127.958 229.788 126.222C226.311 122.931 221.786 122.132 217.173 121.602C216.708 121.551 216.62 122.111 216.89 122.379C216.903 122.435 216.927 122.487 216.961 122.534C216.994 122.58 217.037 122.619 217.086 122.648C219.821 124.341 219.021 128.648 221.917 130.239C223.277 130.966 224.928 130.762 226.413 130.82C228.382 130.845 230.324 131.288 232.109 132.121C233.667 133.835 234.75 135.926 235.252 138.186C235.688 138.243 236.129 138.262 236.568 138.244V138.244ZM223.954 125.728C223.393 125.525 223.153 126.411 223.706 126.614C226.147 127.483 228.412 128.782 230.392 130.45C229.913 130.314 229.428 130.205 228.937 130.123C227.009 129.811 224.048 130.414 222.346 129.397C219.967 128.016 220.163 124.646 218.468 122.634C222.608 123.186 226.543 124.174 229.592 127.305C230.69 128.453 231.642 129.731 232.429 131.111C230.063 128.681 227.161 126.837 223.954 125.728V125.728Z" fill="#37B596"/>
<path d="M38.9649 103.856V139.567C38.9652 140.104 39.108 140.632 39.3787 141.096C39.6494 141.56 40.0384 141.945 40.5062 142.211C40.974 142.476 41.5039 142.614 42.042 142.608C42.5801 142.603 43.1073 142.456 43.57 142.182L96.6411 110.633C97.0886 110.359 97.4577 109.975 97.7126 109.516C97.9675 109.058 98.0996 108.542 98.0961 108.018V71.6461C98.0948 71.1114 97.9525 70.5864 97.6834 70.1241C97.4144 69.6617 97.028 69.2783 96.5634 69.0125C96.0987 68.7466 95.5721 68.6077 95.0366 68.6096C94.5011 68.6116 93.9755 68.7544 93.5128 69.0237L41.533 99.3809C40.7508 99.8378 40.1021 100.491 39.6515 101.276C39.2009 102.061 38.9642 102.951 38.9649 103.856Z" fill="#054F70"/>
<path d="M41.242 104.742V140.453C41.2451 140.987 41.3891 141.512 41.6596 141.973C41.9301 142.434 42.3175 142.817 42.7828 143.081C43.2482 143.345 43.775 143.483 44.3104 143.479C44.8458 143.475 45.3707 143.331 45.8325 143.061L98.94 111.512C99.3875 111.238 99.7566 110.854 100.011 110.395C100.266 109.937 100.399 109.421 100.395 108.897V72.5325C100.394 71.9977 100.251 71.4728 99.9823 71.0104C99.7133 70.5481 99.327 70.1647 98.8623 69.8988C98.3977 69.6329 97.8711 69.494 97.3355 69.496C96.8 69.498 96.2744 69.6408 95.8118 69.9101L43.8174 100.267C43.0338 100.723 42.3836 101.376 41.9317 102.162C41.4799 102.947 41.242 103.836 41.242 104.742V104.742Z" fill="#22C55E"/>
<path d="M96.2309 106.989C97.3579 104.134 96.6988 101.2 94.7588 100.437C92.8187 99.6733 90.3324 101.369 89.2054 104.224C88.0784 107.08 88.7375 110.013 90.6776 110.777C92.6176 111.54 95.1039 109.845 96.2309 106.989Z" fill="#FBF472"/>
<path d="M90.844 109.995C91.971 107.14 91.3119 104.206 89.3719 103.443C87.4318 102.679 84.9455 104.375 83.8185 107.231C82.6915 110.086 83.3506 113.02 85.2907 113.783C87.2307 114.546 89.717 112.851 90.844 109.995Z" fill="#E2347C"/>
<path d="M47.8622 102.526C48.5315 102.149 48.9826 102.345 49.1281 103.064L48.6188 103.536C48.4879 103.129 48.2332 103.035 47.8913 103.246C47.6145 103.419 47.3965 103.673 47.2657 103.972C47.0939 104.345 47.007 104.752 47.011 105.163C46.9697 105.49 47.0557 105.82 47.2511 106.086C47.34 106.157 47.4503 106.195 47.5639 106.195C47.6776 106.195 47.7879 106.157 47.8768 106.086C48.0708 105.953 48.2354 105.782 48.3606 105.584C48.4857 105.385 48.5686 105.163 48.6043 104.931L49.1135 104.815C49.0625 105.22 48.9218 105.609 48.7016 105.953C48.4814 106.297 48.1872 106.588 47.8404 106.805C47.6917 106.914 47.512 106.973 47.3275 106.973C47.143 106.973 46.9633 106.914 46.8146 106.805C46.6507 106.627 46.5285 106.414 46.4568 106.183C46.3851 105.952 46.3657 105.708 46.3999 105.468C46.3938 104.84 46.5411 104.219 46.8292 103.66C47.0588 103.192 47.4171 102.799 47.8622 102.526V102.526Z" fill="white"/>
<path d="M51.0996 103.035L51.9362 104.415L51.3033 104.778L50.4885 103.442L50.1903 103.609V105.41L49.6228 105.737V101.56L50.7359 100.928C51.3324 100.587 51.6671 100.87 51.6598 101.589C51.6707 102.126 51.4694 102.645 51.0996 103.035ZM50.7432 102.584C50.8609 102.517 50.9573 102.418 51.0216 102.299C51.0859 102.179 51.1154 102.044 51.1069 101.909C51.1069 101.594 50.9881 101.505 50.7504 101.64L50.1975 101.952V102.897L50.7504 102.584" fill="white"/>
<path d="M54.2497 98.9305V99.6497L52.9256 100.405L52.9184 101.277L53.9805 100.674V101.393L52.9184 101.996L52.9111 103.144L54.2788 102.367V103.086L52.3364 104.19L52.3582 100.013L54.2497 98.9305Z" fill="white"/>
<path d="M55.7774 98.0661C56.5049 97.6593 57.2324 97.8845 57.1888 99.3446C57.2152 99.9127 57.0953 100.478 56.8406 100.987C56.5859 101.496 56.2048 101.931 55.7338 102.25L54.7808 102.795V98.6182L55.7774 98.0661ZM56.2721 100.972C56.5091 100.58 56.6279 100.129 56.6141 99.6715C56.6141 99.1485 56.4904 98.8361 56.2794 98.7635C56.1623 98.7308 56.0394 98.7249 55.9197 98.7463C55.8 98.7677 55.6867 98.8157 55.5883 98.8869L55.3773 99.0104V101.756L55.5883 101.633C55.8816 101.476 56.1315 101.249 56.3158 100.972" fill="white"/>
<path d="M58.28 96.635L58.2582 100.812L57.698 101.139L57.7198 96.9546L58.28 96.635Z" fill="white"/>
<path d="M61.0445 95.0587L61.0373 95.7779L60.1861 96.2646L60.1715 99.7223L59.6041 100.049L59.6186 96.5842L58.7675 97.0709L58.7747 96.3517L61.0445 95.0587Z" fill="white"/>
<path d="M63.8163 93.4315C64.4856 93.0538 64.9366 93.2499 65.0821 93.969L64.5729 94.4412C64.4419 94.0344 64.1873 93.94 63.8454 94.1507C63.5679 94.3239 63.3498 94.5772 63.2197 94.8771C63.0461 95.25 62.9591 95.6572 62.9651 96.0684C62.9207 96.3955 63.0069 96.7269 63.2052 96.991C63.2929 97.0611 63.402 97.0993 63.5144 97.0993C63.6268 97.0993 63.7358 97.0611 63.8236 96.991C64.0175 96.8584 64.1822 96.6875 64.3073 96.4888C64.4325 96.2902 64.5154 96.0679 64.5511 95.836L65.0603 95.7197C65.0093 96.125 64.8685 96.5139 64.6483 96.8582C64.4281 97.2024 64.134 97.4934 63.7872 97.7101C63.6385 97.8193 63.4588 97.8782 63.2743 97.8782C63.0898 97.8782 62.9101 97.8193 62.7614 97.7101C62.5975 97.5319 62.4753 97.3195 62.4036 97.0884C62.3319 96.8572 62.3124 96.613 62.3467 96.3735C62.3406 95.7447 62.4879 95.1239 62.7759 94.5647C63.0076 94.0958 63.3685 93.7026 63.8163 93.4315V93.4315Z" fill="white"/>
<path d="M66.8427 91.7535L67.854 95.3421L67.2429 95.6908L67.0173 94.8336L66.0498 95.3857L65.8242 96.4971L65.2131 96.8458L66.2753 92.0659L66.8427 91.7535ZM66.2025 94.5793L66.85 94.2088L66.5299 92.9449L66.2025 94.5793Z" fill="white"/>
<path d="M69.7236 92.4146L70.5675 93.8021L69.9273 94.1653L69.1125 92.8287L68.8142 92.9958V94.7973L68.2468 95.1169V90.94L69.3598 90.308C69.9564 89.9666 70.291 90.2499 70.2838 90.969C70.2939 91.5056 70.0927 92.0246 69.7236 92.4146ZM69.3671 91.9642C69.4848 91.8967 69.5813 91.7977 69.6456 91.6783C69.7098 91.5589 69.7394 91.4239 69.7309 91.2887C69.7309 90.9739 69.612 90.8843 69.3744 91.0199L68.8215 91.3322V92.2766L69.3744 91.9642" fill="white"/>
<path d="M71.9498 88.8478C72.6773 88.441 73.4047 88.6662 73.3611 90.1263C73.3875 90.6945 73.2676 91.2599 73.0129 91.7686C72.7582 92.2773 72.3771 92.7123 71.9061 93.032L70.9458 93.5768V89.3999L71.9498 88.8478ZM72.4445 91.7535C72.6814 91.362 72.8002 90.9105 72.7864 90.4532C72.7864 89.9302 72.6627 89.6178 72.4517 89.5452C72.3346 89.5125 72.2117 89.5066 72.092 89.528C71.9724 89.5494 71.8591 89.5975 71.7606 89.6687L71.5496 89.7922V92.5381L71.7606 92.4146C72.0539 92.2574 72.3038 92.0303 72.4881 91.7535" fill="white"/>
<path d="M47.564 113.561V120.237C47.5643 120.517 47.6382 120.793 47.7785 121.036C47.9187 121.279 48.1203 121.481 48.3632 121.622C48.6061 121.763 48.8818 121.839 49.1628 121.84C49.4438 121.842 49.7203 121.77 49.9647 121.631L59.2913 116.307C59.537 116.166 59.7411 115.963 59.8829 115.718C60.0247 115.473 60.0992 115.195 60.0988 114.912V108.098C60.0974 107.817 60.0219 107.54 59.8799 107.297C59.7378 107.054 59.5343 106.852 59.2896 106.713C59.045 106.573 58.7678 106.5 58.4859 106.501C58.204 106.502 57.9273 106.576 57.6835 106.718L48.3569 112.18C48.116 112.322 47.9162 112.524 47.7772 112.766C47.6381 113.008 47.5646 113.282 47.564 113.561V113.561Z" fill="#D1D1F5"/>
<path d="M63.7872 107.931L64.0055 107.807L63.729 111.977L63.2343 112.275L63.438 109.144L62.8851 109.936L62.9361 109.122L63.7872 107.931Z" fill="white"/>
<path d="M65.3368 106.965L65.4022 106.921C65.9115 106.616 66.1807 106.921 66.1297 107.648C66.0979 108.037 65.9995 108.418 65.8387 108.774L65.1112 110.503L66.0715 109.921L66.0279 110.648L64.2673 111.679V111.381L65.3659 108.875C65.5015 108.599 65.5877 108.302 65.6205 107.996C65.6205 107.655 65.5405 107.517 65.3222 107.648C65.2164 107.739 65.1298 107.85 65.0674 107.974C65.005 108.099 64.9679 108.235 64.9585 108.374L64.5147 108.519C64.5513 108.187 64.6553 107.866 64.8202 107.575C64.9439 107.335 65.1205 107.127 65.3368 106.965V106.965Z" fill="white"/>
<path d="M66.8572 106.1L68.385 105.141V105.403L67.6575 107.125L67.7666 107.045C68.1886 106.79 68.4141 107.139 68.3632 107.88C68.3398 108.294 68.2282 108.697 68.0358 109.064C67.8963 109.351 67.6891 109.601 67.432 109.791L67.3519 109.841C67.1046 109.994 66.9009 110.008 66.7481 109.885C66.6589 109.788 66.5924 109.673 66.5533 109.547C66.5143 109.422 66.5038 109.289 66.5226 109.159L67.0027 108.781C67.0391 109.151 67.1701 109.26 67.4029 109.122C67.5388 109.008 67.6487 108.865 67.7252 108.705C67.8017 108.545 67.8431 108.37 67.8466 108.192C67.8466 107.72 67.723 107.56 67.4611 107.72C67.3798 107.779 67.3085 107.85 67.2501 107.931L67.0828 107.626L67.672 106.238L66.799 106.754L66.8572 106.1Z" fill="white"/>
<path d="M70.4511 106.551L70.7567 106.369L70.713 107.096L70.4075 107.277L70.3565 108.047L69.8691 108.33L69.9201 107.56L68.7488 108.287V107.909L70.1019 104.204L70.6184 103.892L70.4511 106.551ZM69.9637 106.841L70.0655 105.25L69.3817 107.19L69.9637 106.841Z" fill="white"/>
<path d="M73.8267 104.531L74.1323 104.35L74.0886 105.076L73.7831 105.258L73.7321 106.035L73.2374 106.326L73.2884 105.548L72.1098 106.275V105.897L73.463 102.192L73.9795 101.88L73.8267 104.531ZM73.332 104.829L73.4339 103.238L72.75 105.142L73.3247 104.793" fill="white"/>
<path d="M74.9979 101.241L76.402 100.398L76.3584 101.124L75.3544 101.72L75.2308 102.628C75.3264 102.491 75.4444 102.37 75.58 102.272H75.6309C76.1838 101.945 76.4311 102.272 76.3584 103.158C76.3332 103.571 76.2243 103.974 76.0383 104.342C75.901 104.631 75.6934 104.881 75.4345 105.069L75.3617 105.12C75.2818 105.184 75.1845 105.224 75.0821 105.233C74.9797 105.242 74.877 105.22 74.787 105.171C74.7042 105.082 74.6417 104.976 74.604 104.86C74.5663 104.745 74.5543 104.623 74.5687 104.502L75.0416 104.095C75.0416 104.451 75.1944 104.56 75.4126 104.43H75.449C75.5853 104.311 75.6932 104.163 75.765 103.997C75.8367 103.831 75.8704 103.651 75.8637 103.471C75.8637 102.999 75.7618 102.846 75.4781 103.013H75.4345C75.2284 103.181 75.0682 103.399 74.9689 103.645L74.6633 103.732L74.9979 101.241Z" fill="white"/>
<path d="M78.4681 100.972C78.5549 101.088 78.6165 101.221 78.6491 101.362C78.6817 101.504 78.6844 101.65 78.6573 101.793C78.6282 102.187 78.5166 102.57 78.3299 102.919C78.1887 103.205 77.9818 103.454 77.7261 103.645L77.6533 103.696C77.3987 103.848 77.1877 103.848 77.0277 103.696C76.9377 103.583 76.8736 103.451 76.8396 103.311C76.8057 103.17 76.8029 103.024 76.8312 102.882C76.8534 102.604 76.9146 102.33 77.0131 102.069L77.9516 99.4172L78.4972 99.0903L77.7697 100.994H77.8279C78.1189 100.783 78.3153 100.783 78.4681 100.972ZM78.1626 102.09C78.1626 101.676 78.0316 101.524 77.7843 101.676H77.7479C77.6167 101.786 77.5105 101.923 77.4365 102.077C77.3624 102.231 77.3223 102.399 77.3187 102.57C77.3187 102.969 77.4569 103.129 77.697 102.984C77.8286 102.873 77.9355 102.735 78.0107 102.58C78.0859 102.425 78.1277 102.255 78.1335 102.083" fill="white"/>
<path d="M79.1593 98.7489L80.8107 97.761L80.7889 98.0734L79.5085 102.555L79.0211 102.839L80.1851 98.807L79.1084 99.439L79.1593 98.7489Z" fill="white"/>
<path d="M83.4297 98.0443C83.6625 98.1097 83.7571 98.3712 83.728 98.8288C83.7073 99.2142 83.5977 99.5896 83.4079 99.9257C83.2713 100.194 83.0747 100.428 82.8331 100.609L82.7531 100.659C82.665 100.725 82.5577 100.761 82.4476 100.761C82.3374 100.761 82.2302 100.725 82.142 100.659C82.0518 100.552 81.9872 100.426 81.9531 100.29C81.9191 100.154 81.9165 100.012 81.9456 99.8749C81.967 99.4385 82.1134 99.0174 82.3675 98.6617C82.2075 98.5601 82.142 98.3349 82.1711 97.9789C82.1944 97.6512 82.286 97.332 82.4403 97.0418C82.5632 96.7911 82.7455 96.5742 82.9714 96.4098L83.0296 96.3735C83.2624 96.2428 83.4442 96.2355 83.5679 96.3735C83.6428 96.4675 83.6965 96.5765 83.7254 96.6931C83.7543 96.8097 83.7576 96.9311 83.7352 97.0491C83.7154 97.4006 83.6105 97.7421 83.4297 98.0443V98.0443ZM83.2333 99.1267C83.2457 99.0623 83.2444 98.9959 83.2293 98.9321C83.2143 98.8682 83.1859 98.8083 83.146 98.7562C83.0805 98.6981 82.9859 98.6908 82.8768 98.7562C82.7635 98.8375 82.6713 98.9446 82.6076 99.0685C82.5254 99.2261 82.4783 99.3996 82.4694 99.577C82.4553 99.6421 82.4552 99.7094 82.469 99.7744C82.4828 99.8395 82.5102 99.901 82.5494 99.9548C82.6149 100.013 82.7095 100.013 82.8259 99.9548H82.8622C82.9723 99.875 83.062 99.7705 83.1241 99.6497C83.2045 99.494 83.2516 99.3233 83.2624 99.1485L83.2333 99.1267ZM83.3133 97.3614C83.3133 97.0491 83.2187 96.9183 83.015 97.0418C82.9094 97.1311 82.8247 97.2424 82.7669 97.3679C82.7091 97.4934 82.6795 97.6301 82.6804 97.7683C82.6804 98.0879 82.7749 98.2259 82.9714 98.1097C83.0768 98.0198 83.1618 97.9085 83.2208 97.7833C83.2798 97.658 83.3113 97.5216 83.3133 97.3833" fill="white"/>
<path d="M85.845 95.0805C85.9337 95.1944 85.997 95.3259 86.0309 95.4662C86.0648 95.6065 86.0683 95.7523 86.0414 95.8941C86.0223 96.1729 85.9609 96.4472 85.8595 96.7077L84.9283 99.3301L84.3754 99.6642L85.1029 97.761H85.0447C84.7901 97.9135 84.5864 97.9135 84.4336 97.761C84.348 97.6414 84.2871 97.5058 84.2546 97.3624C84.2222 97.2189 84.2187 97.0704 84.2445 96.9256C84.2717 96.5289 84.3833 96.1426 84.5719 95.7924C84.7119 95.5054 84.919 95.2563 85.1757 95.066L85.2484 95.0151C85.3405 94.9567 85.4498 94.9314 85.5582 94.9433C85.6666 94.9552 85.7678 95.0036 85.845 95.0805ZM85.554 96.1847C85.554 95.7851 85.4158 95.6253 85.1757 95.7706C85.0457 95.883 84.9404 96.021 84.8665 96.1761C84.7927 96.3311 84.7518 96.4998 84.7465 96.6714C84.7465 97.0854 84.8774 97.238 85.1248 97.0854H85.1611C85.2931 96.9763 85.3998 96.8399 85.4739 96.6857C85.548 96.5314 85.5877 96.363 85.5904 96.1919" fill="white"/>
<path d="M86.507 94.3613L88.1584 93.3734L88.1366 93.6785L86.8562 98.1533L86.3688 98.4438L87.5328 94.4049L86.4561 95.0514L86.507 94.3613Z" fill="white"/>
<path d="M90.0208 92.5816C90.1116 92.6945 90.1768 92.8257 90.212 92.9661C90.2471 93.1066 90.2514 93.253 90.2245 93.3952C90.2034 93.6737 90.1421 93.9477 90.0427 94.2088L89.1042 96.8603L88.5586 97.1871L89.2861 95.2839H89.2279C88.9732 95.4437 88.7695 95.4437 88.6168 95.2839C88.5303 95.1646 88.469 95.0291 88.4365 94.8856C88.404 94.742 88.401 94.5933 88.4276 94.4485C88.4559 94.052 88.5674 93.6659 88.755 93.3153C88.8952 93.0285 89.1023 92.7794 89.3588 92.5889L89.4388 92.538C89.6571 92.4218 89.8681 92.4291 90.0208 92.5816ZM89.7298 93.693C89.7298 93.2935 89.5916 93.1337 89.3515 93.279C89.2221 93.3902 89.1171 93.5271 89.0432 93.6809C88.9693 93.8346 88.9282 94.002 88.9223 94.1725C88.9223 94.5793 89.0533 94.7318 89.3006 94.5865H89.337C89.4682 94.4768 89.5744 94.3403 89.6484 94.1862C89.7224 94.0321 89.7626 93.8639 89.7662 93.693" fill="white"/>
<path d="M57.1888 124.573L56.4176 126.934L57.2179 128.54L56.6504 128.932L56.1193 127.849L55.5155 129.716L54.9481 130.101L55.8647 127.319L55.1809 125.953L55.7338 125.576L56.1557 126.411L56.6359 124.951L57.1888 124.573Z" fill="white"/>
<path d="M54.868 126.171L54.0969 128.54L54.8971 130.145L54.3297 130.53L53.7986 129.455L53.1948 131.314L52.6273 131.707L53.544 128.917L52.8601 127.559L53.413 127.174L53.835 128.009L54.3078 126.556L54.868 126.171Z" fill="white"/>
<path d="M59.5095 122.968L58.7383 125.336L59.5386 126.934L58.9784 127.326L58.4473 126.251L57.8435 128.111L57.2688 128.503L58.1854 125.714L57.5016 124.355L58.0618 123.97L58.4837 124.806L58.9566 123.353L59.5095 122.968Z" fill="white"/>
<path d="M62.8051 120.694L62.0339 123.062L62.8342 124.668L62.2667 125.053L61.7357 123.978L61.1318 125.837L60.5644 126.23L61.4738 123.447L60.7972 122.082L61.3501 121.697L61.772 122.532L62.2449 121.079L62.8051 120.694Z" fill="white"/>
<path d="M65.1258 119.096L64.3547 121.457L65.1549 123.062L64.5875 123.455L64.0564 122.372L63.4526 124.239L62.8924 124.624L63.8018 121.842L63.1179 120.476L63.6781 120.099L64.0928 120.934L64.5656 119.481L65.1258 119.096Z" fill="white"/>
<path d="M67.4466 117.491L66.6754 119.859L67.4757 121.464L66.9082 121.849L66.3771 120.774L65.7733 122.634L65.2131 123.026L66.1225 120.236L65.4387 118.878L65.9988 118.493L66.4135 119.328L66.8937 117.876L67.4466 117.491Z" fill="white"/>
<path d="M186.546 15.0652C188.148 16.1677 189.443 17.6588 190.31 19.3983C191.176 21.1379 191.586 23.0689 191.5 25.0099C191.187 34.2209 189.15 35.9861 189.15 35.9861L175.16 27.3635L153.212 13.3072C153.212 13.3072 171.13 8.9269 186.546 15.0652Z" fill="#666666"/>
<path d="M171.45 58.2582L147.144 44.9792C147.144 44.9792 147.486 21.4214 156.834 7.03824C157.682 5.77397 158.958 4.85752 160.428 4.45719C161.898 4.05686 163.464 4.19952 164.837 4.85898L186.546 15.0652C186.546 15.0652 178.179 10.2054 171.45 58.2582Z" fill="#E6E6E6"/>
<path d="M174.127 20.7313L158.53 12.1595C157.3 11.4839 156.194 13.3654 157.431 14.0409L173.029 22.5837C174.258 23.2592 175.364 21.3778 174.127 20.7022V20.7313Z" fill="#999999"/>
<path d="M171.945 25.0026L156.347 16.4599C155.118 15.7844 154.012 17.6658 155.249 18.3414L170.846 26.8841C172.076 27.5596 173.181 25.6782 171.945 25.0026V25.0026Z" fill="#999999"/>
<path d="M168.736 35.6374L153.139 27.0947C151.909 26.4191 150.804 28.3005 152.04 28.9761L167.638 37.5188C168.867 38.1944 169.973 36.313 168.736 35.6374V35.6374Z" fill="#999999"/>
<path d="M167.398 40.8386L151.8 32.2959C150.571 31.6203 149.465 33.5017 150.702 34.1773L166.299 42.72C167.529 43.3956 168.635 41.5141 167.398 40.8386V40.8386Z" fill="#999999"/>
<path d="M167.398 46.4902L151.8 37.9475C150.571 37.2719 149.465 39.1533 150.702 39.8289L166.299 48.3716C167.529 49.0472 168.635 47.1658 167.398 46.4902V46.4902Z" fill="#999999"/>
<path d="M179.627 29.9714L181.264 29.1796V30.8649L182.923 30.3055V31.8891L184.865 31.2426V33.0877L186.575 32.3903L186.742 34.2427L188.124 33.4509L188.342 35.2307L189.732 34.2427V36.0878L191.282 35.1072L191.427 37.1339H189.397" fill="white"/>
<path d="M124.402 68.7404C124.852 67.538 125.241 66.3137 125.566 65.072C125.712 64.193 124.839 60.8515 125.45 60.6626C126.061 60.4738 126.825 62.7402 126.825 62.7402C126.825 62.7402 128.644 58.6432 129.138 58.447C129.633 58.2509 131.11 58.1202 131.466 58.4906C131.823 58.8611 132.805 61.251 132.369 62.0646C131.424 63.5152 130.399 64.9121 129.299 66.2488C129.138 66.3723 127.225 70.4839 126.971 70.6073C126.716 70.7308 124.606 69.663 124.402 68.7404Z" fill="#FFC9B5"/>
<path d="M104.462 81.9976C104.462 81.9976 114.458 78.0531 116.196 76.6221C117.935 75.191 124.199 67.8179 124.199 67.8179C124.199 67.8179 127.836 69.1472 127.793 70.9705C127.793 70.9705 122.7 79.4624 120.336 81.7361C117.971 84.0098 109.343 89.7267 107.452 89.596C105.56 89.4652 104.462 81.9976 104.462 81.9976Z" fill="#C93535"/>
<path d="M110.842 162.783C110.842 162.783 113.228 160.749 115.934 161.534C118.641 162.318 118.059 164.323 116.371 165.58C114.683 166.836 108.187 171.202 106.186 171.159C104.185 171.115 103.749 169.51 103.705 168.405C103.816 166.702 104.013 165.005 104.294 163.321" fill="#2C1D1A"/>
<path d="M109.351 162.638C109.361 162.712 109.387 162.784 109.428 162.847C109.469 162.91 109.523 162.963 109.587 163.003C109.651 163.042 109.723 163.067 109.798 163.076C109.873 163.084 109.949 163.076 110.02 163.052C110.746 162.822 111.457 162.551 112.151 162.238C112.151 162.238 114.458 162.238 113.054 164.541C111.649 166.844 106.812 167.519 105.32 166.662C103.829 165.805 104.826 163.364 104.826 163.364" fill="#2C1D1A"/>
<path d="M116.458 167.272C116.458 167.272 118.844 165.238 121.551 166.023C124.257 166.807 123.675 168.812 121.987 170.069C120.299 171.326 113.803 175.692 111.802 175.648C109.802 175.604 109.365 173.999 109.321 172.895C109.432 171.191 109.629 169.494 109.911 167.81" fill="#2C1D1A"/>
<path d="M114.945 167.134C114.955 167.209 114.981 167.28 115.022 167.343C115.063 167.406 115.118 167.46 115.182 167.499C115.246 167.539 115.318 167.564 115.392 167.572C115.467 167.581 115.543 167.573 115.614 167.548C116.34 167.319 117.052 167.047 117.746 166.735C117.746 166.735 120.052 166.735 118.648 169.038C117.244 171.34 112.406 172.016 110.915 171.159C109.423 170.301 110.42 167.861 110.42 167.861" fill="#FFC9B5"/>
<path d="M117.477 104.466C118.255 106.224 118.677 131.394 118.379 137.881C118.081 144.368 114.945 167.134 114.945 167.134C114.945 167.134 113.177 169.815 110.194 169.626C107.212 169.437 107.794 167.04 107.794 167.04C107.794 167.04 103.982 168.805 102.316 164.926C101.697 163.473 98.7945 123.367 98.7945 118.798C98.894 113.338 100.397 107.995 103.159 103.282" fill="#2C1D1A"/>
<path d="M107.815 167.033C107.815 167.033 106.004 116.183 106.237 114.679C106.47 113.176 105.742 125.83 105.793 129.288C105.822 131.758 107.328 163.575 107.815 167.033Z" fill="#6D5854"/>
<path d="M117.477 104.466C117.477 104.466 120.11 86.4579 116.364 83.0582C112.617 79.6586 102.206 77.2468 100.264 78.9394C98.3216 80.632 101.239 99.7296 103.174 103.275C105.109 106.819 116.094 105.868 117.477 104.466Z" fill="#EA5353"/>
<path d="M112.763 69.8156C112.85 70.0699 114.698 77.0799 111.475 78.0968C108.252 79.1138 107.605 75.2711 107.284 75.0531C106.964 74.8352 105.953 74.4938 106.004 73.7165C106.055 72.9392 107.277 72.9247 107.277 72.9247C107.277 72.9247 107.75 70.8907 109.198 70.019C110.646 69.1473 112.763 69.8156 112.763 69.8156Z" fill="#FFC9B5"/>
<path d="M109.729 71.7914C109.729 71.7914 112.421 71.835 113.585 70.6873C113.803 70.4629 113.971 70.1959 114.081 69.9031C114.19 69.6102 114.237 69.2979 114.219 68.9859C114.202 68.6739 114.119 68.369 113.977 68.0904C113.836 67.8119 113.637 67.5657 113.395 67.3675C113.395 67.3675 114.465 65.2391 112.457 64.7233C112.457 64.7233 112.275 62.7693 108.274 63.6628C104.273 64.5563 100.613 67.3675 100.562 70.9996C100.511 74.6317 100.242 75.0748 98.9473 75.9102C97.6523 76.7456 98.0088 79.9491 101.472 80.0799C104.935 80.2106 109.656 79.9055 110.1 78.1985C110.544 76.4914 107.917 76.3098 107.59 74.5663C107.509 73.9159 107.689 73.2599 108.089 72.7405C108.489 72.2211 109.078 71.8801 109.729 71.7914V71.7914Z" fill="#2C1D1A"/>
<path d="M122.678 101.873C122.678 101.873 125.45 104.822 126.25 105.141C127.476 105.701 128.653 106.36 129.771 107.11C129.4 107.442 129.07 107.818 128.789 108.229C128.788 108.243 128.788 108.258 128.789 108.272C128.433 108.018 128.185 107.829 128.193 107.96C128.193 108.374 130.921 111.919 131.336 112.457C131.75 112.994 130.608 114.752 130.608 114.752C128.847 115.34 126.818 113.561 125.516 112.355C124.213 111.149 123.609 108.36 123.158 107.996C122.707 107.633 118.99 105.185 118.728 104.422C118.466 103.66 122.678 101.873 122.678 101.873Z" fill="#FFC9B5"/>
<path d="M117.222 84.344C117.95 85.9494 117.95 87.7073 118.255 89.429C118.495 90.6566 118.743 91.9424 119.026 93.1846C119.22 94.4509 119.618 95.6775 120.205 96.8167C121.223 98.5092 122.547 99.9766 123.704 101.567C124.025 101.913 124.258 102.332 124.381 102.788C124.49 103.899 123.086 107.066 119.194 106.674C117.227 105.087 115.388 103.348 113.694 101.473C111.511 98.9088 109.445 90.2353 109.656 87.3514C109.802 85.39 110.871 83.1963 112.733 82.3391C113.351 82.0879 114.031 82.0319 114.681 82.1787C115.332 82.3255 115.921 82.668 116.371 83.1599C116.719 83.5041 117.007 83.9044 117.222 84.344V84.344Z" fill="#EA5353"/>
<path d="M117.004 104.771C117.004 104.771 113.752 102.011 112.952 100.347C112.151 98.6835 111.111 95.6907 111.111 95.6907C111.111 95.6907 112.617 104.342 114.057 105.497C115.06 105.345 116.046 105.102 117.004 104.771Z" fill="#2C1D1A"/>
<path opacity="0.48" d="M150.389 150.347L147.006 145.196L142.59 143.497L135.817 146.773L81.982 177.595L100.395 188.28C105.902 184.815 144.991 153.993 150.389 150.347Z" fill="url(#paint3_linear_21_353)"/>
<path d="M131.263 105.933C124.599 106.434 124.948 118.282 124.497 123.157C124.381 124.392 126.112 124.798 126.229 123.563C126.607 119.481 126.352 113.946 128.411 110.35C129.051 109.238 129.815 108.171 131.125 108.047C131.535 108.033 131.944 108.11 132.321 108.272C132.698 108.434 133.035 108.677 133.307 108.984C133.889 109.565 134.202 111.846 134.304 112.529C134.65 115.065 134.689 117.633 134.42 120.178C134.304 121.413 136.035 121.82 136.152 120.585C136.523 116.713 137.199 105.483 131.263 105.933Z" fill="#8CCC00"/>
<path d="M141.23 113.866L143.23 117.527L147.239 118.442L144.234 129.796L135.715 123.752" fill="#DD842A"/>
<path d="M120.685 126.317L141.23 113.866L140.56 132.361L124.861 134.01L120.685 126.317Z" fill="#C13D3D"/>
<path d="M128.033 129.063L131.205 164.04L150.411 151.407L147.239 118.442L128.033 129.063Z" fill="#22C55E"/>
<path d="M128.033 129.063L125.865 126.317H120.685L118.517 156.899L124.09 159.718L131.205 164.04L128.033 129.063Z" fill="#22C55E"/>
<path opacity="0.14" d="M128.033 129.063L125.865 126.317H120.685L118.517 156.899L124.09 159.718L131.205 164.04L128.033 129.063Z" fill="#42210B"/>
<path d="M139.84 111.781C133.162 111.846 132.863 123.665 132.15 128.532C131.968 129.753 133.678 130.283 133.86 129.048C134.457 124.995 134.507 119.452 136.77 115.972C137.694 114.556 139.324 113.365 140.924 114.294C142.379 115.123 142.379 116.982 142.517 118.537C142.726 121.087 142.625 123.653 142.219 126.179C142.037 127.399 143.739 127.929 143.929 126.694C144.503 122.888 145.791 111.723 139.84 111.781Z" fill="#8CCC00"/>
<defs>
<linearGradient id="paint0_linear_21_353" x1="33.9233" y1="145.908" x2="57.6222" y2="128.375" gradientUnits="userSpaceOnUse">
<stop offset="0.01" stop-color="#2E3192" stop-opacity="0"/>
<stop offset="1" stop-color="#666666"/>
</linearGradient>
<linearGradient id="paint1_linear_21_353" x1="142.765" y1="151.306" x2="165.628" y2="118.977" gradientUnits="userSpaceOnUse">
<stop offset="0.01" stop-color="#2E3192" stop-opacity="0"/>
<stop offset="1" stop-color="#666666"/>
</linearGradient>
<linearGradient id="paint2_linear_21_353" x1="213.034" y1="164.091" x2="236.733" y2="146.558" gradientUnits="userSpaceOnUse">
<stop offset="0.01" stop-color="#2E3192" stop-opacity="0"/>
<stop offset="1" stop-color="#666666"/>
</linearGradient>
<linearGradient id="paint3_linear_21_353" x1="88.9078" y1="186.762" x2="136.777" y2="146.623" gradientUnits="userSpaceOnUse">
<stop offset="0.01" stop-color="#2E3192" stop-opacity="0"/>
<stop offset="1" stop-color="#666666"/>
</linearGradient>
</defs>
</svg>
