<svg width="16" height="16" viewBox="0 0 16 16" fill="none" xmlns="http://www.w3.org/2000/svg">
<g clip-path="url(#clip0_24_1949)">
<path d="M7.70625 4.70625C7.31563 5.09688 6.68437 5.09688 6.29375 4.70625C5.90312 4.31563 5.90312 3.68438 6.29375 3.29375L9.29375 0.292875C9.68437 -0.097625 10.3156 -0.097625 10.7063 0.292875L13.7063 3.29375C14.0969 3.68438 14.0969 4.31563 13.7063 4.70625C13.3156 5.09688 12.6844 5.09688 12.2937 4.70625L11 3.41563V12C11 13.1031 11.8969 14 13 14H15C15.5531 14 16 14.4469 16 15C16 15.5531 15.5531 16 15 16H13C10.7906 16 9 14.2094 9 12C9 10.8969 8.10312 10 7 10H3.41563L4.70625 11.2937C5.09688 11.6844 5.09688 12.3156 4.70625 12.7063C4.31563 13.0969 3.68438 13.0969 3.29375 12.7063L0.293125 9.70625H0.290781C0.111719 9.525 0.000809375 9.27813 9.375e-06 9.00313L0.075875 8.61875C0.124688 8.47187 0.197031 8.3875 0.292875 8.29375L3.29375 5.29375C3.68438 4.90312 4.31563 4.90312 4.70625 5.29375C5.09688 5.68437 5.09688 6.31563 4.70625 6.70625L3.41563 7.97188H7C7.72812 7.97188 8.4125 8.19375 9 8.53438V3.41563L7.70625 4.70625ZM0 8.99687C0.000390625 8.8625 0.0273406 8.73437 0.075875 8.61875C0.0256687 8.7375 0.00038125 8.86875 0 8.99687ZM0 9.00313V8.97188V8.99687V9.00313Z" fill="#22C55E"/>
</g>
<defs>
<clipPath id="clip0_24_1949">
<rect width="16" height="16" fill="white"/>
</clipPath>
</defs>
</svg>
